<svg version="1.1" xmlns="http://www.w3.org/2000/svg"
xmlns:xlink="http://www.w3.org/1999/xlink">
  
  	<path viewBox="0 0 171 40" id="logo-lightspeed" class="clients-logo"  d="M13.0949 9.53674e-10L14.8949 3.135C15.2549 3.785 15.2549 4.577 14.8949 5.225L4.16686 23.856L9.24286 32.649C9.63407 33.3252 10.1955 33.8872 10.8713 34.2791C11.547 34.6711 12.3137 34.8792 13.0949 34.883C14.6789 34.883 16.1549 34.018 16.9469 32.649L22.0229 23.856L20.6909 21.478L14.9309 31.46C14.5709 32.108 13.8509 32.505 13.1309 32.505C12.3749 32.505 11.6909 32.108 11.3309 31.46L6.90286 23.856L16.8749 6.559L18.6749 9.694C19.0349 10.343 19.0349 11.135 18.6749 11.784L11.7269 23.856L13.0949 26.235L20.6549 13.117L25.6229 21.73C25.9944 22.3835 26.1897 23.1223 26.1897 23.874C26.1897 24.6257 25.9944 25.3645 25.6229 26.018L20.5829 34.775C19.8269 36.108 17.4149 39.099 13.0949 39.099C8.77486 39.099 6.39886 36.109 5.60686 34.775L0.566859 26.018C0.195336 25.3645 -4.54264e-09 24.6257 -4.54263e-09 23.874C-4.54263e-09 23.1223 0.195336 22.3835 0.566859 21.73L13.0949 9.53674e-10ZM36.5309 9.334H40.0229V29.982H36.5309V9.334ZM44.7029 13.117C45.1089 13.1172 45.5059 12.997 45.8436 12.7716C46.1813 12.5461 46.4446 12.2256 46.6002 11.8506C46.7558 11.4755 46.7966 11.0627 46.7176 10.6645C46.6386 10.2662 46.4432 9.90027 46.1563 9.61302C45.8693 9.32576 45.5036 9.13005 45.1054 9.05064C44.7072 8.97123 44.2943 9.01169 43.9191 9.16689C43.5439 9.3221 43.2232 9.58508 42.9974 9.92258C42.7717 10.2601 42.6511 10.657 42.6509 11.063C42.6509 12.198 43.5699 13.117 44.7029 13.117ZM42.9389 15.64H46.4669V29.982H42.9389V15.64ZM55.7189 15.28C51.7229 15.28 48.4829 18.09 48.4829 22.559C48.4829 27.027 51.2909 29.766 55.7549 29.766C57.5189 29.766 59.3909 30.667 59.3909 32.649C59.3909 34.631 57.8069 35.749 55.7549 35.749C53.7029 35.749 52.0109 34.523 52.0109 32.649H48.4829C48.4829 36.505 51.5789 39.063 55.7549 39.063C59.8949 39.063 62.9189 36.613 62.9189 32.649C62.9189 30.811 62.3429 29.081 59.9669 27.892C62.3069 26.812 62.9909 24.325 62.9909 22.522C62.9909 18.09 59.7149 15.28 55.7189 15.28ZM73.2149 15.28C71.5949 15.28 70.0469 15.784 68.7509 17.406V9.298H65.2229V29.946H68.7509V22.667C68.7509 20.541 70.1909 18.775 72.2789 18.775C74.1509 18.775 75.5189 19.892 75.5189 22.487V29.947H79.0469V22.235C79.0829 18.018 77.2829 15.28 73.2149 15.28ZM87.6509 27.532C87.2189 27.532 86.8589 27.388 86.6429 27.099C86.4269 26.811 86.3189 26.379 86.3189 25.73V18.667H89.1629L89.4869 15.604H86.3549V11.676L82.7909 12.072V15.64H80.0909V18.703H82.7909V25.838C82.7909 27.316 83.1509 28.433 83.8349 29.19C84.5189 29.946 85.5629 30.343 86.8949 30.343C87.5069 30.343 88.0829 30.271 88.6949 30.09C89.2719 29.9265 89.8189 29.6712 90.3149 29.334L89.0909 27.064C88.6699 27.3633 88.1674 27.5267 87.6509 27.532ZM102.159 22.271C100.719 21.37 99.0269 21.261 97.3709 21.153C96.3989 21.081 94.9229 20.865 94.9229 19.603C94.9229 18.703 95.8589 18.199 97.5509 18.199C98.9189 18.199 100.107 18.523 101.115 19.459L103.095 17.153C101.439 15.712 99.7469 15.28 97.4789 15.28C94.8509 15.28 91.3949 16.433 91.3949 19.748C91.3949 21.118 92.1149 22.378 93.3029 23.099C94.6349 23.929 96.3629 24.036 97.8389 24.217C98.8469 24.325 100.503 24.577 100.215 25.982C100.035 26.955 98.8469 27.244 98.0189 27.28C97.1189 27.316 96.2189 27.244 95.3189 27.027C94.3829 26.775 93.6269 26.343 92.7989 25.802L90.9989 28.072C91.1069 28.144 91.2149 28.252 91.2149 28.252C93.5189 30.162 96.7229 30.775 99.6389 30.126C101.835 29.622 103.707 28.036 103.707 25.658C103.779 24.325 103.347 22.991 102.159 22.271ZM113.787 15.28C112.167 15.28 110.259 15.964 109.143 17.55L109.035 15.604H105.615V36.253L109.143 35.856V28.289C110.151 29.839 112.347 30.343 113.859 30.343C118.431 30.343 121.095 26.919 121.095 22.775C121.095 18.559 118.179 15.28 113.787 15.28ZM125.703 24.072C126.099 25.766 127.647 27.244 130.167 27.244C131.463 27.244 133.191 26.594 134.019 25.766L136.287 28C134.775 29.55 132.291 30.307 130.131 30.307C125.667 30.307 122.427 27.352 122.427 22.775C122.427 18.451 125.775 15.28 129.879 15.28C134.199 15.28 137.799 18.235 137.439 24.072H125.703ZM142.047 24.072C142.443 25.766 143.991 27.244 146.511 27.244C147.807 27.244 149.535 26.594 150.363 25.766L152.631 28C151.119 29.55 148.635 30.307 146.475 30.307C142.011 30.307 138.771 27.352 138.771 22.775C138.771 18.451 142.119 15.28 146.223 15.28C150.543 15.28 154.143 18.235 153.783 24.072H142.047ZM162.315 30.342C163.935 30.342 165.843 29.658 166.959 28.072L167.067 29.982H170.487V9.334H166.959V17.334C165.951 15.784 163.719 15.316 162.207 15.316C157.635 15.316 155.007 18.703 155.007 22.883C155.007 27.063 157.923 30.343 162.315 30.343V30.342ZM55.7549 26.847C53.7029 26.847 52.0109 25.081 52.0109 22.559C52.0109 20.072 53.7029 18.235 55.7549 18.235C57.8069 18.235 59.4629 20.108 59.4629 22.559C59.4629 25.045 57.7709 26.847 55.7549 26.847ZM113.499 27.28C111.087 27.28 109.467 25.081 109.467 22.847C109.467 20.613 110.979 18.235 113.499 18.235C116.055 18.235 117.531 20.649 117.531 22.847C117.567 25.081 115.911 27.28 113.499 27.28ZM134.019 21.37C133.623 19.676 131.931 18.199 129.879 18.199C127.971 18.199 126.207 19.496 125.703 21.369H134.019V21.37ZM150.399 21.37C150.003 19.676 148.311 18.199 146.259 18.199C144.351 18.199 142.587 19.496 142.083 21.369H150.399V21.37ZM162.567 18.343C164.979 18.343 166.599 20.541 166.599 22.775C166.599 25.009 165.087 27.388 162.567 27.388C160.011 27.388 158.535 24.973 158.535 22.775C158.535 20.541 160.155 18.343 162.567 18.343Z"/>

	<path viewBox="0 0 62 54" id="logo-trvl" class="clients-logo" d="M4.453 53.835V49.01L61.813 27.853V32.679L4.453 53.835ZM26.183 37.66C26.183 37.66 25.559 37.143 25.57 35.29C25.579 33.954 25.57 29.966 25.57 29.966C25.57 29.162 25.276 28.796 24.759 28.796C24.537 28.795 24.242 28.867 23.872 29.012L21.659 29.811V39.316L16.494 41.201V13.787L25.054 10.666C26.16 10.23 27.12 10.013 27.859 10.088C29.48 10.092 30.146 11.117 30.146 13.457V19.818C30.146 21.5 28.873 23.588 26.953 24.606V24.681C27.248 24.607 27.543 24.608 27.764 24.608C29.167 24.612 30.77 25.498 30.737 27.308C30.737 27.308 30.72 32.011 30.737 33.606C30.754 35.339 31.349 35.773 31.349 35.773L26.183 37.66ZM24.907 17.099C24.907 16.222 24.759 15.927 24.242 15.926C24.022 15.926 23.726 15.924 23.284 16.07L21.659 16.651V25.131L23.209 24.551C24.464 24.116 24.907 23.386 24.907 22.143V17.099ZM50.377 29.376V1.886L55.541 -1.96695e-09V22.883L61.813 20.56V25.168L50.377 29.376ZM9.742 21.006V43.67L4.575 45.557V22.893L5.84126e-09 24.562V19.81L14.243 14.584V19.336L9.742 21.006ZM42.227 32.165L37.8 33.835C36.913 32.808 32.304 8.159 32.304 8.159L37.47 6.272C37.47 6.272 39.495 22.883 40.012 23.762C40.529 22.519 42.642 4.564 42.642 4.564L47.807 2.677C47.807 2.677 43.037 30.704 42.227 32.165Z"/>

	<path viewBox="0 0 155 48" id="logo-spider-strategies" class="clients-logo" d="M63.896 9.29C63.3199 8.94411 62.7075 8.66243 62.07 8.45C61.3782 8.22119 60.6536 8.10735 59.925 8.113C59.531 8.113 59.171 8.15 58.845 8.226C58.5479 8.29089 58.2625 8.40119 57.999 8.553C57.7766 8.68149 57.5867 8.8594 57.444 9.073C57.3095 9.28214 57.2399 9.52639 57.244 9.775C57.236 10.0082 57.3123 10.2365 57.459 10.418C57.602 10.588 57.803 10.735 58.059 10.852C58.315 10.972 58.621 11.072 58.975 11.155C59.328 11.237 59.715 11.311 60.135 11.377L60.925 11.506C61.5222 11.5973 62.11 11.7426 62.681 11.94C63.1899 12.1132 63.6677 12.3671 64.096 12.692C64.496 13.002 64.812 13.378 65.043 13.82C65.272 14.262 65.387 14.783 65.387 15.383C65.387 16.148 65.23 16.813 64.917 17.377C64.6079 17.9353 64.1752 18.4156 63.652 18.781C63.0956 19.1658 62.4753 19.4489 61.82 19.617C61.1135 19.8032 60.3857 19.8964 59.655 19.894C59.122 19.894 58.585 19.855 58.045 19.78C57.5116 19.7054 56.9845 19.5914 56.468 19.439C55.9665 19.29 55.4781 19.0996 55.008 18.87C54.5629 18.6534 54.1422 18.3899 53.753 18.084L55.203 15.858C55.456 16.056 55.747 16.245 56.073 16.428C56.7846 16.8146 57.5527 17.0866 58.349 17.234C58.773 17.311 59.211 17.351 59.664 17.351C60.051 17.351 60.413 17.315 60.75 17.242C61.087 17.17 61.379 17.062 61.626 16.916C61.8553 16.7862 62.0533 16.6077 62.206 16.393C62.346 16.187 62.416 15.951 62.416 15.68C62.416 15.443 62.353 15.238 62.226 15.066C62.0759 14.8759 61.8821 14.7249 61.661 14.626C61.3631 14.487 61.0509 14.381 60.73 14.31C60.305 14.21 59.8763 14.1259 59.445 14.058L58.555 13.919C57.9724 13.8299 57.3995 13.6859 56.844 13.489C56.353 13.318 55.896 13.0618 55.494 12.732C55.1149 12.4172 54.8105 12.022 54.603 11.575C54.389 11.12 54.283 10.579 54.283 9.952C54.283 9.234 54.434 8.6 54.738 8.048C55.042 7.498 55.448 7.039 55.958 6.674C56.4966 6.29418 57.0982 6.01283 57.735 5.843C58.4288 5.65244 59.1455 5.55756 59.865 5.561C60.352 5.561 60.825 5.588 61.281 5.645C62.1883 5.75556 63.0744 5.99882 63.911 6.367C64.341 6.555 64.777 6.777 65.217 7.034L63.897 9.29H63.896ZM73.149 9.805C73.817 9.805 74.437 9.933 75.01 10.19C75.5728 10.4394 76.0798 10.7991 76.501 11.248C76.921 11.697 77.251 12.229 77.491 12.846C77.731 13.462 77.851 14.13 77.851 14.849C77.8573 15.5329 77.737 16.212 77.496 16.852C77.275 17.4438 76.9404 17.9867 76.511 18.45C76.091 18.898 75.594 19.25 75.021 19.508C74.4349 19.7678 73.8001 19.8994 73.159 19.894C72.506 19.894 71.947 19.779 71.484 19.553C71.0339 19.3355 70.6338 19.027 70.309 18.647V23.603H67.708V10.062H70.258V11.12C70.578 10.724 70.974 10.406 71.444 10.165C71.914 9.925 72.482 9.805 73.149 9.805ZM79.982 19.647H82.592V10.062H79.982V19.647ZM89.425 9.805C90.078 9.805 90.637 9.919 91.1 10.151C91.564 10.381 91.956 10.684 92.276 11.061V5.402H94.877V19.646H92.327V18.588C92.007 18.977 91.61 19.292 91.135 19.533C90.663 19.773 90.092 19.894 89.425 19.894C88.7846 19.8992 88.1505 19.7676 87.565 19.508C87.0023 19.2586 86.4953 18.8988 86.074 18.45C85.6449 17.9864 85.3104 17.4436 85.089 16.852C84.8475 16.2121 84.7268 15.5329 84.733 14.849C84.733 14.129 84.851 13.462 85.089 12.846C85.325 12.229 85.654 11.696 86.074 11.248C86.494 10.8 86.99 10.448 87.564 10.19C88.1497 9.93026 88.7843 9.79899 89.425 9.805ZM101.92 9.804C102.62 9.804 103.26 9.926 103.835 10.17C104.398 10.4045 104.905 10.7555 105.322 11.2C105.735 11.64 106.057 12.172 106.286 12.79C106.516 13.412 106.632 14.094 106.632 14.839C106.632 15.1297 106.616 15.4202 106.582 15.709H99.71C99.776 16.059 99.886 16.359 100.04 16.605C100.193 16.852 100.378 17.059 100.595 17.223C100.812 17.388 101.056 17.508 101.33 17.584C101.603 17.66 101.893 17.697 102.2 17.697C102.62 17.697 103.046 17.619 103.476 17.46C103.906 17.302 104.298 17.075 104.651 16.778L106.181 18.44C105.642 18.9325 105.007 19.308 104.316 19.543C103.585 19.7831 102.819 19.9016 102.05 19.894C101.31 19.894 100.631 19.773 100.015 19.533C99.42 19.3063 98.8783 18.9591 98.424 18.513C97.9725 18.0633 97.6197 17.5246 97.388 16.931C97.141 16.315 97.018 15.631 97.018 14.878C97.018 14.126 97.138 13.439 97.378 12.817C97.6019 12.2203 97.9441 11.6751 98.384 11.214C98.8213 10.7642 99.3475 10.4104 99.929 10.175C100.561 9.92149 101.238 9.79541 101.919 9.804H101.92ZM114.024 9.804C114.304 9.804 114.556 9.822 114.78 9.858C115.002 9.894 115.205 9.946 115.385 10.012L114.995 12.574C114.754 12.4734 114.502 12.3987 114.245 12.351C113.971 12.2965 113.693 12.2683 113.414 12.267C113.114 12.267 112.838 12.313 112.589 12.406C112.347 12.4929 112.127 12.631 111.944 12.811C111.764 12.989 111.624 13.214 111.524 13.483C111.418 13.7849 111.368 14.1032 111.374 14.423V19.647H108.762V10.062H111.293V11.11C111.574 10.6772 111.971 10.3326 112.439 10.116C112.895 9.908 113.424 9.804 114.024 9.804ZM63.896 29.302C63.3199 28.9561 62.7075 28.6744 62.07 28.462C61.3782 28.2332 60.6536 28.1193 59.925 28.125C59.531 28.125 59.171 28.162 58.845 28.238C58.5479 28.3029 58.2625 28.4132 57.999 28.565C57.7766 28.6935 57.5867 28.8714 57.444 29.085C57.3095 29.2941 57.2399 29.5384 57.244 29.787C57.236 30.0202 57.3123 30.2485 57.459 30.43C57.602 30.601 57.803 30.747 58.059 30.865C58.315 30.983 58.621 31.085 58.975 31.167C59.328 31.25 59.715 31.323 60.135 31.389L60.925 31.519C61.5222 31.6103 62.11 31.7556 62.681 31.953C63.1899 32.1262 63.6677 32.3801 64.096 32.705C64.496 33.015 64.812 33.39 65.043 33.832C65.272 34.274 65.387 34.795 65.387 35.395C65.387 36.161 65.23 36.825 64.917 37.389C64.6079 37.9473 64.1752 38.4276 63.652 38.793C63.0956 39.1778 62.4753 39.4609 61.82 39.629C61.1135 39.8152 60.3857 39.9084 59.655 39.906C59.122 39.906 58.585 39.868 58.045 39.792C57.5116 39.7174 56.9845 39.6034 56.468 39.451C55.9665 39.302 55.4781 39.1116 55.008 38.882C54.5629 38.6654 54.1422 38.4019 53.753 38.096L55.203 35.87C55.456 36.068 55.747 36.258 56.073 36.44C56.7846 36.8266 57.5527 37.0986 58.349 37.246C58.773 37.324 59.211 37.363 59.664 37.363C60.051 37.363 60.413 37.327 60.75 37.255C61.087 37.182 61.379 37.074 61.626 36.929C61.8554 36.7989 62.0534 36.62 62.206 36.405C62.346 36.199 62.416 35.963 62.416 35.693C62.416 35.455 62.353 35.25 62.226 35.079C62.0759 34.8889 61.8821 34.7379 61.661 34.639C61.3632 34.4997 61.051 34.3933 60.73 34.322C60.305 34.222 59.8763 34.1379 59.445 34.07L58.555 33.932C57.9724 33.8426 57.3995 33.6983 56.844 33.501C56.353 33.33 55.896 33.0738 55.494 32.744C55.1149 32.4292 54.8105 32.034 54.603 31.587C54.389 31.133 54.283 30.591 54.283 29.965C54.283 29.246 54.434 28.612 54.738 28.061C55.0356 27.5164 55.4527 27.0463 55.958 26.686C56.4967 26.3065 57.0983 26.0255 57.735 25.856C58.4288 25.6651 59.1454 25.5699 59.865 25.573C60.352 25.573 60.825 25.601 61.281 25.657C62.1883 25.7676 63.0744 26.0108 63.911 26.379C64.341 26.567 64.777 26.789 65.217 27.047L63.897 29.302H63.896ZM74.551 32.368H71.04V35.87C71.04 36.167 71.078 36.42 71.155 36.627C71.231 36.835 71.335 37.003 71.465 37.131C71.594 37.261 71.748 37.354 71.925 37.413C72.102 37.473 72.29 37.503 72.49 37.503C72.803 37.503 73.118 37.439 73.435 37.309C73.752 37.181 74.043 37.038 74.311 36.879L75.271 38.897C74.844 39.187 74.374 39.427 73.861 39.619C73.347 39.81 72.746 39.906 72.06 39.906C70.852 39.906 69.946 39.579 69.339 38.926C68.732 38.274 68.429 37.324 68.429 36.078V32.368H66.557V30.074H68.428V27.226H71.04V30.074H74.55V32.368H74.551ZM82.113 29.817C82.393 29.817 82.645 29.834 82.869 29.87C83.091 29.907 83.294 29.958 83.474 30.025L83.084 32.586C82.8426 32.4854 82.5912 32.4107 82.334 32.363C82.0603 32.3088 81.782 32.281 81.503 32.28C81.203 32.28 80.927 32.325 80.678 32.418C80.4362 32.5052 80.2162 32.6437 80.033 32.824C79.853 33.001 79.713 33.226 79.613 33.496C79.512 33.766 79.463 34.079 79.463 34.436V39.659H76.85V30.074H79.381V31.123C79.6615 30.6899 80.0588 30.3449 80.527 30.128C80.983 29.92 81.512 29.817 82.112 29.817H82.113ZM94.468 39.659H91.918V38.6C91.591 38.9948 91.185 39.3167 90.726 39.545C90.253 39.785 89.683 39.906 89.016 39.906C88.3757 39.9115 87.7415 39.7802 87.156 39.521C86.5932 39.2713 86.0862 38.9112 85.665 38.462C85.2357 37.9988 84.9008 37.4563 84.679 36.865C84.4377 36.2247 84.3173 35.5452 84.324 34.861C84.324 34.142 84.442 33.474 84.679 32.859C84.916 32.241 85.245 31.709 85.665 31.26C86.085 30.812 86.581 30.46 87.155 30.203C87.7407 29.9429 88.3752 29.8113 89.016 29.817C89.683 29.817 90.253 29.937 90.726 30.177C91.2 30.418 91.597 30.737 91.918 31.132V30.074H94.468V39.659ZM104.242 32.369H100.731V35.869C100.731 36.167 100.769 36.419 100.846 36.627C100.922 36.835 101.026 37.003 101.156 37.131C101.286 37.261 101.439 37.354 101.616 37.413C101.793 37.473 101.981 37.503 102.181 37.503C102.495 37.503 102.81 37.439 103.127 37.309C103.443 37.181 103.735 37.038 104.002 36.879L104.962 38.897C104.535 39.187 104.065 39.427 103.552 39.619C103.038 39.81 102.438 39.906 101.752 39.906C100.543 39.906 99.637 39.579 99.03 38.926C98.423 38.274 98.12 37.324 98.12 36.078V32.368H96.249V30.074H98.119V27.226H100.731V30.074H104.242V32.368V32.369ZM110.724 29.816C111.424 29.816 112.064 29.938 112.639 30.183C113.202 30.4172 113.709 30.7679 114.126 31.212C114.539 31.652 114.861 32.184 115.09 32.803C115.321 33.423 115.436 34.106 115.436 34.851C115.436 35.1417 115.42 35.4322 115.386 35.721H108.514C108.58 36.071 108.69 36.371 108.844 36.617C108.997 36.865 109.183 37.071 109.399 37.235C109.616 37.4 109.86 37.521 110.134 37.596C110.407 37.672 110.698 37.709 111.005 37.709C111.425 37.709 111.85 37.631 112.28 37.473C112.71 37.314 113.102 37.087 113.455 36.791L114.985 38.452C114.446 38.9443 113.812 39.3199 113.121 39.555C112.39 39.7952 111.624 39.9137 110.854 39.906C110.114 39.906 109.435 39.786 108.819 39.546C108.224 39.3193 107.682 38.9721 107.228 38.526C106.776 38.0761 106.424 37.5369 106.192 36.943C105.945 36.327 105.822 35.643 105.822 34.891C105.822 34.139 105.942 33.451 106.182 32.829C106.406 32.2323 106.748 31.6871 107.188 31.226C107.618 30.781 108.133 30.436 108.734 30.188C109.366 29.9341 110.043 29.8077 110.724 29.816ZM121.429 29.816C122.109 29.816 122.695 29.935 123.189 30.173C123.682 30.411 124.095 30.734 124.429 31.143V30.073H126.989V38.868C126.989 39.639 126.868 40.33 126.624 40.94C126.395 41.5295 126.036 42.06 125.574 42.492C125.098 42.9287 124.536 43.2609 123.924 43.467C123.28 43.691 122.559 43.803 121.758 43.803C120.987 43.8023 120.219 43.7042 119.472 43.511C119.115 43.418 118.765 43.2976 118.426 43.151C118.107 43.0133 117.802 42.8442 117.516 42.646L118.446 40.539C118.934 40.855 119.442 41.098 119.973 41.266C120.503 41.435 121.061 41.518 121.647 41.518C122.054 41.518 122.427 41.464 122.764 41.355C123.099 41.247 123.39 41.085 123.634 40.87C123.878 40.657 124.067 40.39 124.204 40.074C124.347 39.7263 124.417 39.3529 124.409 38.977V38.304C124.073 38.708 123.651 39.0325 123.174 39.254C122.683 39.484 122.102 39.6 121.429 39.6C120.845 39.6022 120.267 39.4827 119.732 39.249C119.198 39.0161 118.715 38.6796 118.312 38.259C117.889 37.8127 117.556 37.2887 117.332 36.716C117.082 36.0782 116.958 35.398 116.966 34.713C116.966 33.974 117.088 33.305 117.331 32.705C117.575 32.105 117.901 31.59 118.311 31.162C118.714 30.7393 119.197 30.4013 119.732 30.168C120.267 29.9338 120.845 29.8143 121.429 29.817V29.816ZM129.732 39.658H132.342V30.074H129.732V39.658ZM131.022 25.276C131.254 25.276 131.473 25.319 131.676 25.405C131.875 25.4854 132.056 25.6046 132.208 25.7557C132.36 25.9068 132.48 26.0868 132.562 26.285C132.649 26.49 132.692 26.708 132.692 26.938C132.693 27.1558 132.651 27.3717 132.568 27.573C132.485 27.7742 132.362 27.9568 132.207 28.11C132.057 28.258 131.88 28.374 131.676 28.457C131.468 28.5398 131.246 28.5815 131.022 28.58C130.797 28.5817 130.575 28.5399 130.366 28.457C130.168 28.3786 129.989 28.2612 129.837 28.1117C129.686 27.9622 129.567 27.7837 129.486 27.587C129.402 27.3811 129.359 27.1605 129.361 26.938C129.361 26.708 129.402 26.49 129.486 26.286C129.569 26.08 129.686 25.904 129.836 25.756C130.152 25.4457 130.579 25.2732 131.022 25.276ZM139.384 29.816C140.084 29.816 140.724 29.938 141.299 30.183C141.862 30.4172 142.369 30.7679 142.786 31.212C143.199 31.652 143.521 32.184 143.75 32.803C143.981 33.423 144.096 34.106 144.096 34.851C144.096 35.1417 144.08 35.4322 144.046 35.721H137.174C137.24 36.071 137.35 36.371 137.504 36.617C137.657 36.865 137.842 37.071 138.059 37.235C138.276 37.4 138.52 37.521 138.794 37.596C139.067 37.672 139.358 37.709 139.665 37.709C140.085 37.709 140.51 37.631 140.94 37.473C141.37 37.314 141.762 37.087 142.115 36.791L143.645 38.452C143.106 38.9445 142.471 39.32 141.78 39.555C141.049 39.7951 140.283 39.9136 139.514 39.906C138.774 39.906 138.095 39.786 137.479 39.546C136.884 39.3193 136.342 38.9721 135.888 38.526C135.436 38.0761 135.084 37.5369 134.852 36.943C134.605 36.327 134.482 35.643 134.482 34.891C134.482 34.139 134.602 33.451 134.842 32.829C135.066 32.2323 135.408 31.6871 135.848 31.226C136.278 30.781 136.793 30.436 137.394 30.188C138.026 29.9341 138.703 29.8077 139.384 29.816ZM153.109 32.744C152.65 32.5275 152.172 32.3505 151.683 32.215C151.41 32.1385 151.133 32.0774 150.853 32.032C150.577 31.9866 150.298 31.9632 150.018 31.962C149.518 31.962 149.144 32.042 148.898 32.2C148.651 32.359 148.528 32.57 148.528 32.834C148.524 32.961 148.569 33.0847 148.653 33.18C148.746 33.2796 148.861 33.3571 148.988 33.407C149.128 33.466 149.294 33.515 149.488 33.551C149.682 33.587 149.888 33.621 150.108 33.655L150.968 33.783C152.022 33.942 152.831 34.255 153.394 34.723C153.958 35.191 154.24 35.833 154.24 36.652C154.24 37.147 154.14 37.595 153.94 37.996C153.736 38.4022 153.437 38.7533 153.069 39.02C152.689 39.3 152.222 39.519 151.669 39.674C151.056 39.836 150.423 39.914 149.789 39.906C149.454 39.906 149.103 39.888 148.732 39.852C148.355 39.8139 147.981 39.7528 147.612 39.669C147.232 39.582 146.859 39.4664 146.497 39.323C146.137 39.1814 145.795 38.9985 145.477 38.778L146.507 36.82C146.713 36.958 146.934 37.084 147.167 37.196C147.681 37.441 148.229 37.6075 148.793 37.69C149.103 37.737 149.441 37.76 149.808 37.76C150.415 37.76 150.865 37.68 151.158 37.522C151.452 37.363 151.598 37.143 151.598 36.86C151.598 36.628 151.472 36.444 151.218 36.306C150.964 36.166 150.555 36.059 149.988 35.98L149.198 35.87C146.963 35.567 145.847 34.598 145.847 32.962C145.847 32.467 145.94 32.027 146.127 31.642C146.314 31.255 146.583 30.928 146.937 30.657C147.29 30.387 147.719 30.181 148.223 30.039C148.782 29.8897 149.359 29.818 149.938 29.826C150.324 29.826 150.694 29.845 151.044 29.881C151.722 29.9539 152.39 30.1046 153.034 30.33C153.351 30.444 153.669 30.578 153.989 30.737L153.109 32.744ZM20.863 0L11.071 5.68V16.235L29.976 5.205L20.863 0ZM9.335 6.638L0 11.91V28.54L9.335 23.263V6.638ZM37.103 9.272L0 30.455V35.737L4.627 38.377L41.731 17.196V11.913L37.103 9.273V9.272ZM20.867 47.65L30.66 41.972V31.417L11.754 42.446L20.867 47.65ZM32.397 41.015L41.731 35.739V19.107L32.398 24.387V41.015H32.397ZM122.089 32.191C121.715 32.191 121.379 32.257 121.078 32.388C120.787 32.5138 120.525 32.6975 120.308 32.928C120.092 33.1588 119.926 33.431 119.818 33.728C119.704 34.035 119.648 34.363 119.648 34.713C119.648 35.063 119.704 35.389 119.818 35.693C119.926 35.9897 120.093 36.2613 120.31 36.4909C120.527 36.7204 120.788 36.9032 121.078 37.028C121.397 37.1633 121.741 37.2308 122.088 37.226C122.448 37.226 122.779 37.161 123.078 37.033C123.369 36.911 123.632 36.7303 123.849 36.5021C124.067 36.2739 124.236 36.0032 124.344 35.707C124.46 35.401 124.519 35.069 124.519 34.713C124.522 34.3721 124.462 34.0336 124.344 33.714C124.235 33.4161 124.067 33.1435 123.849 32.913C123.635 32.689 123.379 32.513 123.079 32.383C122.766 32.2518 122.429 32.1864 122.089 32.191ZM89.496 32.221C89.116 32.221 88.771 32.289 88.461 32.428C88.1601 32.5594 87.89 32.7522 87.6679 32.9939C87.4458 33.2357 87.2765 33.5211 87.171 33.832C87.0527 34.1624 86.9931 34.511 86.995 34.862C86.995 35.23 87.054 35.574 87.17 35.894C87.286 36.214 87.454 36.494 87.67 36.731C87.887 36.968 88.15 37.156 88.46 37.294C88.77 37.433 89.116 37.502 89.496 37.502C89.869 37.502 90.21 37.436 90.516 37.304C90.823 37.173 91.086 36.988 91.306 36.751C91.526 36.513 91.697 36.233 91.817 35.91C91.937 35.587 91.997 35.237 91.997 34.861C91.997 34.485 91.937 34.135 91.817 33.813C91.7039 33.5022 91.5306 33.2167 91.307 32.973C91.0856 32.7342 90.8165 32.5448 90.517 32.417C90.194 32.2825 89.8469 32.2155 89.497 32.22L89.496 32.221ZM110.704 32.041C110.084 32.041 109.594 32.212 109.234 32.551C108.874 32.891 108.637 33.361 108.524 33.961H112.816C112.696 33.341 112.456 32.866 112.096 32.537C111.735 32.207 111.271 32.042 110.704 32.042V32.041ZM139.364 32.041C138.744 32.041 138.254 32.212 137.894 32.551C137.534 32.891 137.297 33.361 137.184 33.961H141.476C141.356 33.341 141.116 32.866 140.756 32.537C140.395 32.207 139.931 32.042 139.364 32.042V32.041ZM89.906 12.209C89.526 12.209 89.18 12.279 88.87 12.416C88.5691 12.5475 88.2989 12.7404 88.0767 12.9824C87.8546 13.2243 87.6854 13.5099 87.58 13.821C87.4618 14.1511 87.4022 14.4994 87.404 14.85C87.404 15.219 87.463 15.563 87.58 15.883C87.696 16.203 87.863 16.482 88.08 16.719C88.296 16.957 88.56 17.145 88.87 17.283C89.18 17.422 89.526 17.491 89.906 17.491C90.279 17.491 90.619 17.425 90.926 17.293C91.232 17.162 91.496 16.976 91.716 16.74C91.936 16.502 92.106 16.222 92.226 15.898C92.346 15.576 92.406 15.226 92.406 14.85C92.406 14.474 92.346 14.124 92.226 13.802C92.1129 13.4912 91.9396 13.2057 91.716 12.962C91.4946 12.7232 91.2255 12.5338 90.926 12.406C90.603 12.2715 90.2559 12.2045 89.906 12.209ZM81.273 5.265C81.6007 5.26266 81.9218 5.3573 82.1958 5.53702C82.4698 5.71674 82.6846 5.97351 82.813 6.275C82.9 6.479 82.943 6.696 82.943 6.927C82.944 7.14477 82.9017 7.36056 82.8184 7.56179C82.7351 7.76301 82.6126 7.94563 82.458 8.099C82.308 8.247 82.131 8.363 81.927 8.445C81.7192 8.52852 81.497 8.57065 81.273 8.569C81.039 8.569 80.82 8.528 80.617 8.445C80.4195 8.36636 80.2398 8.24882 80.0886 8.09937C79.9375 7.94991 79.8179 7.77159 79.737 7.575C79.6524 7.3695 79.6096 7.14922 79.611 6.927C79.611 6.696 79.653 6.479 79.737 6.274C79.8163 6.07529 79.9352 5.89481 80.0865 5.74352C80.2378 5.59224 80.4183 5.47332 80.617 5.394C80.82 5.307 81.039 5.265 81.273 5.265ZM72.67 12.209C72.3214 12.204 71.9755 12.271 71.654 12.406C71.3564 12.534 71.0889 12.7231 70.869 12.961C70.649 13.199 70.479 13.479 70.359 13.801C70.237 14.1371 70.176 14.4924 70.179 14.85C70.179 15.226 70.239 15.576 70.359 15.898C70.479 16.222 70.649 16.502 70.869 16.74C71.089 16.976 71.35 17.162 71.654 17.293C71.958 17.425 72.297 17.491 72.67 17.491C73.0275 17.4968 73.3822 17.4259 73.71 17.283C74.0093 17.151 74.2779 16.9585 74.4991 16.7176C74.7203 16.4766 74.8891 16.1924 74.995 15.883C75.112 15.563 75.171 15.219 75.171 14.85C75.171 14.487 75.112 14.144 74.995 13.82C74.8855 13.5097 74.7155 13.2242 74.495 12.98C74.2746 12.7403 74.0075 12.5484 73.71 12.416C73.382 12.2738 73.0274 12.2032 72.67 12.209ZM101.9 12.031C101.28 12.031 100.79 12.201 100.43 12.541C100.07 12.881 99.832 13.349 99.72 13.95H104.011C103.891 13.33 103.651 12.855 103.291 12.526C102.931 12.196 102.466 12.031 101.901 12.031H101.9Z"/>

	<path viewBox="0 0 183 30" id="logo-tripadvisor" class="clients-logo" d="M0.1 16.8C0.1 23.6 5.569 29.2 12.43 29.2C16.307 29.2 19.688 27.4 21.975 24.6C22.87 25.7 24.461 27.9 24.759 28.5C24.759 28.5 26.549 25.8 27.543 24.6C29.83 27.4 33.211 29.2 37.089 29.2C43.85 29.2 49.419 23.7 49.419 16.8C49.419 14.1 48.524 11.6 47.032 9.5C47.231 8.1 48.225 6.1 49.518 4.6H41.265C37.089 1.8 31.322 0 24.759 0C18.197 0 12.032 1.8 7.856 4.6H7.86781e-09C1.293 6.1 2.188 8.1 2.486 9.5C0.995 11.6 0.1 14.1 0.1 16.8ZM47.032 16.8C47.032 22.3 42.558 26.8 37.089 26.8C31.62 26.8 27.146 22.3 27.146 16.8C27.146 11.3 31.62 6.8 37.089 6.8C42.558 6.9 47.032 11.3 47.032 16.8ZM24.759 2.1C29.134 2.1 33.211 2.9 36.691 4.5C30.029 4.7 24.759 10.2 24.759 16.9C24.759 10.1 19.29 4.5 12.429 4.5C16.009 2.9 20.384 2.1 24.759 2.1ZM12.429 6.9C17.899 6.9 22.373 11.4 22.373 16.9C22.373 22.4 17.898 26.9 12.429 26.9C6.961 26.9 2.486 22.4 2.486 16.9C2.586 11.3 6.961 6.9 12.429 6.9ZM37.089 22.8C40.37 22.8 43.055 20.1 43.055 16.8C43.055 13.5 40.37 10.8 37.089 10.8C33.808 10.8 31.123 13.5 31.123 16.8C31.123 20.1 33.808 22.8 37.089 22.8ZM12.33 22.8C15.611 22.8 18.296 20.1 18.296 16.8C18.296 13.5 15.611 10.8 12.33 10.8C9.049 10.8 6.364 13.5 6.364 16.8C6.364 20.1 9.049 22.8 12.33 22.8ZM12.33 12.6C14.617 12.6 16.506 14.5 16.506 16.8C16.506 19.1 14.617 21 12.33 21C10.043 21 8.154 19.1 8.154 16.8C8.154 14.5 10.043 12.6 12.33 12.6ZM37.089 12.6C39.376 12.6 41.265 14.5 41.265 16.8C41.265 19.1 39.375 21 37.089 21C34.802 21 32.913 19.1 32.913 16.8C32.913 14.5 34.802 12.6 37.089 12.6ZM12.032 18.8C12.5624 18.8 13.0711 18.5893 13.4462 18.2142C13.8213 17.8391 14.032 17.3304 14.032 16.8C14.032 16.2696 13.8213 15.7609 13.4462 15.3858C13.0711 15.0107 12.5624 14.8 12.032 14.8C11.5016 14.8 10.9929 15.0107 10.6178 15.3858C10.2427 15.7609 10.032 16.2696 10.032 16.8C10.032 17.3304 10.2427 17.8391 10.6178 18.2142C10.9929 18.5893 11.5016 18.8 12.032 18.8ZM36.791 18.8C37.3214 18.8 37.8301 18.5893 38.2052 18.2142C38.5803 17.8391 38.791 17.3304 38.791 16.8C38.791 16.2696 38.5803 15.7609 38.2052 15.3858C37.8301 15.0107 37.3214 14.8 36.791 14.8C36.2606 14.8 35.7519 15.0107 35.3768 15.3858C35.0017 15.7609 34.791 16.2696 34.791 16.8C34.791 17.3304 35.0017 17.8391 35.3768 18.2142C35.7519 18.5893 36.2606 18.8 36.791 18.8ZM71.751 6.941L69.118 7.725V10.078H67.104V12.275H69.118V19.02C69.118 22 70.357 23.569 72.835 23.569C73.765 23.569 74.384 23.412 75.004 23.255L74.849 21.215H74.694C74.384 21.373 73.919 21.373 73.3 21.373C72.68 21.373 72.215 21.216 72.06 20.745C71.75 20.431 71.596 19.804 71.596 18.863V12.118H75.004V9.922H71.596V6.942H71.751V6.941ZM83.522 9.765C82.747 9.765 81.972 10.078 81.198 10.549C80.578 11.019 80.114 11.49 79.804 12.275L79.649 10.078H77.326V10.235C77.326 11.333 77.481 12.745 77.481 14.314V23.254H80.114V16.196C80.114 14.941 80.424 14 81.044 13.216C81.664 12.588 82.438 12.118 83.212 12.118H84.141V9.45H83.986C83.986 9.764 83.676 9.764 83.522 9.764V9.765ZM86.62 10.078H89.253V23.255H86.62V10.078ZM88.014 4.588C87.549 4.588 87.084 4.745 86.774 5.058C86.464 5.373 86.31 5.843 86.31 6.314C86.31 6.784 86.465 7.254 86.775 7.569C87.085 7.882 87.549 8.039 88.014 8.039C88.478 8.039 88.944 7.882 89.253 7.569C89.563 7.255 89.718 6.784 89.718 6.314C89.718 5.844 89.563 5.373 89.253 5.059C88.943 4.745 88.478 4.589 88.013 4.589L88.014 4.588ZM98.547 9.765C96.687 9.765 95.139 10.549 94.055 11.961L93.9 9.921H91.422V10.078C91.422 11.176 91.577 12.588 91.577 14.314V28.588H94.211V21.843C94.521 22.313 94.985 22.784 95.605 23.098C96.379 23.412 97.154 23.725 97.928 23.725C99.632 23.725 101.026 23.098 102.11 21.686C103.195 20.431 103.814 18.549 103.814 16.51C103.814 14.627 103.349 12.902 102.265 11.647C101.491 10.392 100.097 9.765 98.548 9.765H98.547ZM115.895 20.118V15.412C115.895 13.686 115.43 12.275 114.655 11.333C113.726 10.393 112.487 9.922 110.783 9.922C109.08 9.922 107.531 10.392 106.291 11.176L106.911 13.059H107.066C107.996 12.431 109.234 12.118 110.474 12.118C111.403 12.118 112.177 12.431 112.642 12.902C113.107 13.372 113.417 14.157 113.417 14.942V15.098C110.783 15.098 108.925 15.568 107.531 16.353C106.137 17.137 105.517 18.393 105.517 20.118C105.517 21.216 105.827 22.157 106.601 22.784C107.376 23.569 108.305 23.882 109.544 23.882C111.248 23.882 112.642 23.255 113.572 22L113.882 23.569H116.36V23.412C115.895 22.471 115.895 21.372 115.895 20.118ZM129.525 19.804V3.96H126.893V11.49C126.583 11.019 126.118 10.705 125.498 10.391C124.724 10.077 123.95 9.764 123.175 9.764C121.471 9.764 120.077 10.391 118.993 11.803C117.909 13.058 117.289 14.94 117.289 16.979C117.289 18.862 117.754 20.587 118.838 21.842C119.922 23.097 121.316 23.724 122.865 23.724C123.795 23.724 124.724 23.411 125.498 22.94C126.118 22.626 126.583 21.999 127.048 21.372L127.202 23.254H129.681V23.097C129.681 22.47 129.526 21.215 129.526 19.803L129.525 19.804ZM137.115 17.764C136.805 16.824 133.398 10.078 133.398 10.078H130.455L136.961 23.255L143.466 10.078H140.523C140.678 10.078 137.425 17.138 137.116 17.765L137.115 17.764ZM144.86 10.078H147.494V23.255H144.86V10.078ZM146.255 4.588C145.79 4.588 145.325 4.745 145.015 5.058C144.705 5.373 144.551 5.843 144.551 6.314C144.551 6.784 144.706 7.254 145.015 7.569C145.325 7.882 145.79 8.039 146.255 8.039C146.719 8.039 147.184 7.882 147.494 7.569C147.804 7.255 147.958 6.784 147.958 6.314C147.958 5.844 147.803 5.373 147.494 5.059C147.184 4.745 146.719 4.589 146.254 4.589L146.255 4.588ZM155.548 15.568C154.618 15.255 153.844 14.941 153.535 14.628C153.225 14.314 153.07 14 153.07 13.529C153.07 13.059 153.225 12.589 153.535 12.275C153.845 11.961 154.464 11.804 155.084 11.804C156.013 11.804 156.942 12.118 157.872 12.588H158.027L158.647 10.549C157.717 10.079 156.633 9.765 155.238 9.765C153.844 9.765 152.605 10.078 151.831 10.863C150.901 11.647 150.591 12.588 150.591 13.686C150.591 15.412 151.831 16.666 154.154 17.451C155.084 17.765 155.704 18.078 156.013 18.392C156.323 18.706 156.478 19.176 156.478 19.647C156.478 20.117 156.323 20.588 155.858 20.902C155.393 21.216 154.774 21.372 154.154 21.372C153.07 21.372 151.986 21.059 150.901 20.432H150.746L150.126 22.627H150.282C151.366 23.255 152.76 23.569 154.154 23.569C155.704 23.569 156.942 23.255 157.872 22.471C158.801 21.686 159.266 20.745 159.266 19.491C159.266 18.549 158.956 17.765 158.491 17.137C157.717 16.667 156.787 16.039 155.548 15.569V15.568ZM166.856 9.765C164.996 9.765 163.448 10.392 162.209 11.647C160.969 12.902 160.35 14.627 160.35 16.824C160.35 18.863 160.97 20.431 162.054 21.686C163.293 22.941 164.687 23.569 166.546 23.569C167.63 23.569 168.869 23.255 169.799 22.627C170.728 22 171.657 21.216 172.122 20.117C172.742 19.02 172.897 17.765 172.897 16.353C172.897 14.313 172.277 12.745 171.193 11.49C170.263 10.392 168.714 9.765 166.856 9.765ZM181.416 9.765C180.641 9.765 179.866 10.078 179.092 10.549C178.472 11.019 178.008 11.49 177.698 12.275L177.543 10.078H175.375V23.254H178.008V16.196C178.008 14.941 178.318 14 178.938 13.216C179.557 12.588 180.332 12.118 181.106 12.118H182.035V9.45H181.88C181.88 9.764 181.57 9.764 181.416 9.764V9.765ZM113.262 18.863C113.262 19.647 112.952 20.275 112.332 20.745C111.712 21.373 110.938 21.529 110.009 21.529C109.389 21.529 108.925 21.373 108.46 20.902C108.15 20.588 107.84 19.961 107.84 19.333C107.84 18.549 108.15 17.765 108.925 17.294C109.699 16.824 111.093 16.51 113.107 16.51V18.863H113.262ZM126.892 17.608C126.892 18.706 126.582 19.648 125.963 20.275C125.343 20.902 124.569 21.215 123.64 21.215C122.555 21.215 121.626 20.745 121.007 19.961C120.387 19.02 120.077 17.921 120.077 16.667C120.077 15.255 120.387 14.157 121.007 13.216C121.627 12.275 122.555 11.961 123.64 11.961C124.57 11.961 125.344 12.275 125.963 12.902C126.583 13.529 126.893 14.471 126.893 15.412V17.608H126.892ZM100.251 20.118C99.631 20.902 98.701 21.373 97.617 21.373C96.687 21.373 95.913 21.059 95.294 20.431C94.674 19.804 94.364 18.863 94.364 17.921V15.882C94.364 15.569 94.519 14.942 94.674 14.314C94.829 13.686 95.294 13.216 95.914 12.745C96.4438 12.3305 97.0993 12.1093 97.772 12.118C98.856 12.118 99.631 12.588 100.405 13.373C101.025 14.157 101.335 15.255 101.335 16.667C101.335 18.078 101.025 19.333 100.251 20.117V20.118ZM169.334 20.275C168.559 21.215 167.785 21.686 166.701 21.686C165.616 21.686 164.842 21.216 164.067 20.275C163.293 19.333 162.983 18.235 162.983 16.824C162.983 15.412 163.293 14.314 164.067 13.373C164.687 12.431 165.617 11.961 166.856 11.961C167.94 11.961 168.869 12.431 169.489 13.373C170.109 14.313 170.419 15.412 170.419 16.823C170.419 18.078 170.109 19.333 169.334 20.275Z"/>

	<path viewBox="0 0 139 35" id="logo-shutterfly" class="clients-logo" d="M138.978 7.74108L136.074 7.74408L136.084 18.6111C136.089 21.6091 134.36 22.7021 132.1 22.7471C129.843 22.7021 128.649 21.2481 128.644 18.2761L128.642 7.75208H125.765L125.773 18.2821C125.781 24.1271 128.609 25.7921 132.108 25.7921C134.082 25.7921 135.433 24.9331 136.092 24.1441L136.089 26.7871C136.036 28.7791 135.389 30.7831 134.197 31.4141C133.07 32.0021 132.227 31.8511 131.911 31.8411V34.9691C131.911 34.9691 134.066 35.2351 135.954 34.1621C137.775 33.1111 139.001 29.9301 138.995 26.5781L138.978 7.74108ZM27.17 7.67008C25.16 7.67008 23.786 8.54008 23.11 9.31008L23.095 0.457079L20.144 0.462079L20.166 25.7101L23.124 25.7021L23.113 15.5481C23.113 12.5651 24.873 10.7551 27.175 10.7081C29.485 10.7521 30.705 12.9081 30.709 15.9001L30.719 25.6921H33.634L33.628 15.9001C33.616 10.0371 30.738 7.66008 27.171 7.67008H27.17ZM78.511 15.7201C78.933 12.3821 80.733 10.3701 83.441 10.3701C86.814 10.3701 88.143 12.9441 88.457 15.7201H78.511ZM83.516 7.59808C78.81 7.60508 75.602 11.6851 75.606 17.0861C75.612 22.4971 78.967 25.8611 83.843 25.8501C86.734 25.8501 88.58 24.8001 90.56 22.4481L90.686 22.3121L88.874 20.6021L88.754 20.7301C87.247 22.4201 85.931 23.0341 83.907 23.0341C80.853 23.0341 78.894 21.6721 78.493 18.3241L91.139 18.3131L91.164 18.1501C91.187 17.7351 91.184 17.4501 91.187 17.2201C91.184 11.4651 88.287 7.59408 83.516 7.59808ZM97.435 9.76908V7.78108H94.474L94.492 25.6261H97.448L97.442 15.4121C97.439 12.4191 99.852 10.8041 102.145 10.7511C102.465 10.7651 102.786 10.7971 103.08 10.8591V7.67608C102.769 7.63296 102.455 7.6139 102.141 7.61908C99.991 7.61108 98.436 8.36208 97.435 9.76908ZM9.154 11.7351C5.731 10.8651 3.524 10.2491 3.524 7.23908C3.522 4.73008 5.58 3.20008 8.669 3.19508C10.831 3.19508 12.919 4.12508 14.179 5.78508L16.351 3.77208C15.454 2.09208 12.566 0.126079 8.62 0.132079C4.052 0.140079 0.618 3.22708 0.618 7.32008C0.623 12.4431 4.264 13.7001 7.962 14.6461C11.547 15.5621 14.058 16.5161 14.058 19.4501C14.06 22.1551 12.048 22.9021 8.687 22.9021C5.229 22.9091 3.237 20.8971 2.211 19.2911L0 21.3691C0.762 23.5041 4.386 25.9721 8.725 25.9721C13.758 25.9571 17.01 23.7891 16.999 19.3251C17.007 14.3311 13.199 12.7411 9.154 11.7351ZM119.03 0.354079L119.055 25.5901L121.969 25.5751L121.949 0.348079L119.029 0.354079H119.03ZM47.12 7.84608L47.125 18.6181C47.132 21.6201 45.758 22.7211 43.463 22.7651C41.155 22.7281 39.791 21.6201 39.785 18.6351L39.775 7.84908H36.835L36.848 18.7741C36.854 23.6621 39.327 25.9041 43.463 25.8961C47.6 25.8891 50.063 23.6491 50.06 18.7671L50.05 7.83508L47.12 7.84508V7.84608ZM71.556 22.3031C70.33 21.6891 69.666 20.8881 69.586 18.8961L69.58 10.9201L73.884 10.9161L73.876 7.81408L69.573 7.82108L69.57 0.410079H66.616L66.63 7.82208H64.508V10.9321H66.632L66.642 18.9031C66.644 22.2451 67.899 24.0181 69.769 25.0611C71.694 26.1281 73.897 25.8551 73.897 25.8551L73.892 22.7371C73.562 22.7371 72.699 22.8921 71.556 22.3041V22.3031ZM59.92 22.3111C58.695 21.6891 58.025 20.8971 57.943 18.9081V10.9411L62.244 10.9311V7.82408L57.936 7.83108L57.934 0.421079H54.992L54.997 7.83108H52.874L52.882 10.9461H55.005L55.008 18.9081C55.017 22.2621 56.268 24.0261 58.129 25.0741C60.054 26.1491 62.261 25.8741 62.261 25.8741V22.7471C61.929 22.7471 61.065 22.9001 59.92 22.3111ZM115.132 7.75108H110.826V7.59308C110.897 5.60508 111.561 4.22308 112.786 3.58908C113.932 3.00108 114.8 3.15608 115.129 3.15608V0.0180791C115.129 0.0180791 112.909 -0.199921 110.994 0.878079C109.145 1.93308 107.887 4.45408 107.89 7.80208L107.887 7.75608H105.764L105.768 10.8591H107.89L107.904 25.6011L110.846 25.5931L110.829 10.8511L115.137 10.8471L115.132 7.75208V7.75108Z"/>

	<path id="logo-decos" class="clients-logo" d="M22.7072 0.000274843H0.0642135C-0.265786 1.32027 0.724213 2.42027 1.93321 2.42027H22.5972C25.3452 2.42027 27.5432 5.06028 26.8842 7.92027C26.3342 10.0103 24.7952 16.2803 24.7952 16.2803C24.3552 18.2603 22.5972 19.5803 20.5082 19.5803H3.69121C2.92221 19.5803 2.26221 18.9203 2.48221 18.0403C3.03221 15.9503 4.57121 9.79027 4.57121 9.79027C4.90121 8.58027 3.91121 7.37027 2.70221 7.37027C2.70221 7.37027 0.834214 14.8503 0.174214 17.3803C-0.485786 19.8003 1.27421 22.0003 3.69121 22.0003H20.6182C23.6962 22.0003 26.4442 19.8003 27.2132 16.8303C27.2132 16.8303 28.7532 10.5603 29.3022 8.47027C30.5102 3.85028 26.8842 0.000274843 22.7072 0.000274843ZM53.3732 19.5803C52.9332 21.6703 52.3842 22.0003 51.2852 22.0003H30.7302C30.4456 22.0096 30.1642 21.937 29.9196 21.7913C29.6749 21.6455 29.4772 21.4327 29.3498 21.178C29.2225 20.9232 29.1708 20.6373 29.201 20.3542C29.2312 20.071 29.342 19.8024 29.5202 19.5803H53.3722H53.3732ZM87.5572 0.000274843C87.1172 2.09027 86.5672 2.42027 85.4692 2.42027H68.4322C66.4532 2.42027 64.6952 3.74027 64.1452 5.72027C63.5952 7.81027 62.6062 11.9903 62.0572 14.0803C61.2872 17.0503 63.5952 19.5803 66.3432 19.5803H82.6112C82.9081 19.5754 83.2019 19.6399 83.4695 19.7686C83.737 19.8973 83.9708 20.0868 84.1522 20.3218C84.3336 20.5568 84.4576 20.8309 84.5144 21.1223C84.5712 21.4137 84.5591 21.7143 84.4792 22.0003H66.3432C61.7272 22.0003 58.6492 17.8203 59.7482 13.5303C60.1882 11.4403 61.2882 7.37027 61.8372 5.17027C62.4972 2.09027 65.2442 0.000274843 68.4322 0.000274843H87.5572ZM110.639 0.000274843H97.7802C94.7032 0.000274843 91.9552 2.20027 91.1852 5.17027C90.6352 7.26027 89.6462 11.3303 89.0972 13.5303C88.1072 17.8203 91.1852 22.0003 95.6922 22.0003H108.552C111.63 22.0003 114.378 19.8003 115.147 16.8303C115.697 14.7403 116.686 10.6703 117.235 8.47027C118.335 4.18027 115.257 0.000274843 110.64 0.000274843H110.639ZM114.926 7.92027C114.376 10.0103 113.387 14.0803 112.838 16.2803C112.398 18.2603 110.639 19.5803 108.551 19.5803H95.6912C93.0532 19.5803 90.6352 17.0503 91.4042 14.0803C91.9542 11.9903 92.9432 7.81027 93.4932 5.72027C94.0432 3.63027 95.9112 2.42027 97.6692 2.42027H110.639C113.387 2.42027 115.696 4.95027 114.926 7.92027ZM55.7912 9.79027L55.1322 12.2103H35.0172L36.8862 9.79027H55.7902H55.7912ZM42.3812 2.42027C43.4822 0.990275 44.0322 0.000274843 45.6802 0.000274843H55.7922C56.0891 -0.00476651 56.3831 0.0596082 56.6508 0.18827C56.9184 0.316932 57.1523 0.506325 57.3339 0.74136C57.5154 0.976395 57.6395 1.25058 57.6963 1.54206C57.7532 1.83354 57.7411 2.13426 57.6612 2.42027H42.3822H42.3812ZM126.467 2.42027C125.917 2.42027 125.368 2.86027 125.258 3.30027C125.258 3.30027 124.378 6.93027 124.049 8.14028C123.829 9.02028 124.489 9.68027 125.259 9.68027H141.965C144.384 9.68027 146.142 11.8803 145.483 14.1903C145.153 15.4003 144.603 17.8203 144.273 19.0303C143.943 20.3503 142.735 21.7803 140.756 21.7803H118.004C118.444 19.6903 118.993 19.3603 120.092 19.3603H140.756C141.306 19.3603 141.746 18.9203 141.966 18.4803C141.966 18.4803 142.845 14.8503 143.174 13.6403C143.394 12.8703 142.734 12.1003 141.965 12.1003H125.258C122.62 12.1003 121.081 9.79027 121.631 7.59027C121.961 6.38027 122.511 3.96027 122.841 2.75027C123.28 0.990275 124.818 0.000274843 126.356 0.000274843H149C148.56 2.09027 148.01 2.42027 146.912 2.42027H126.467Z"/>

	<path viewBox="0 0 102 39" id="logo-tiqets" class="clients-logo" d="M28.038 6C29.646 6 31 4.696 31 2.979C31.0012 2.58889 30.9255 2.20237 30.7773 1.84151C30.629 1.48066 30.4112 1.15254 30.1361 0.8759C29.8611 0.599261 29.5342 0.379521 29.1742 0.229232C28.8142 0.0789427 28.4281 0.00104901 28.038 0C26.383 0 25 1.306 25 2.979C25 4.696 26.383 6 28.038 6ZM29.498 19.614V10H25V19.614C25 24.797 29.035 29 34 29V24.316C31.519 24.316 29.497 22.204 29.497 19.614H29.498ZM50.388 11.416C49.005 10.583 47.46 10 45.672 10H45.626C43.059 10 40.642 11.028 38.828 12.768C37.9345 13.6299 37.2236 14.6629 36.7377 15.8054C36.2519 16.9479 36.001 18.1765 36 19.418V19.791C36 24.948 40.277 29.131 45.61 29.131C47.2884 29.1314 48.9369 28.6873 50.388 27.844V39H55V10.268H50.388V11.416ZM97.649 18.094L94.715 17.158C93.696 16.811 92.88 16.262 92.925 15.528C93.011 14.151 94.155 13.795 95.293 13.868C96.153 13.923 97.163 14.338 97.49 15.244L101.427 13.301C100.321 11.16 97.876 10.173 95.421 10.016C91.861 9.788 88.682 12.081 88.501 14.998C88.369 17.138 88.655 19.309 93.215 20.885L95.629 21.675C96.901 22.067 97.568 22.581 97.468 23.512C97.403 24.565 96.325 25.242 95.021 25.199C93.49 25.165 92.23 24.234 91.933 23.129L88 25.06C89.068 27.407 91.68 28.807 94.326 28.977C98.034 29.215 101.76 27.54 101.989 23.847C102.079 22.397 101.725 19.447 97.649 18.093V18.094ZM10.953 1H9.222C6.757 1 4.444 2.072 2.696 3.853C0.96 5.611 0 7.921 0 10.563H4.61C4.61 9.196 5.096 8.16 5.974 7.269C6.39706 6.83742 6.90265 6.49539 7.46065 6.26329C8.01865 6.03119 8.61766 5.91376 9.222 5.918H10.878V19.634C10.878 24.806 14.914 29 20.206 29V24.326C17.426 24.326 15.362 22.218 15.362 19.634V5.918H22V1H10.953ZM64.981 10C60.305 10 56 13.722 56 19.43C56 25.467 60.417 29 65.427 29C69.112 29 71.72 27.264 73.051 24.932L69.149 23.076C68.445 24.151 67.279 24.85 65.464 24.85C63.014 24.85 60.974 22.986 60.862 20.767H73.926C73.926 20.767 74 19.978 74 19.287C74 13.543 70.623 10 64.981 10ZM78.431 19.591C78.431 24.228 82.254 28 86.957 28V23.524C84.764 23.524 82.967 21.774 82.967 19.591H82.963V13.766H87V9.913H82.963V4H78.43V9.913H75V13.766H78.43V19.591H78.431ZM50.465 19.791C50.465 21.035 49.903 22.211 48.988 23.081C48.088 23.976 46.988 24.459 45.7 24.459C43.034 24.459 40.98 22.369 40.98 19.791V19.418C40.98 18.179 41.417 17.002 42.329 16.126C43.2234 15.2438 44.4267 14.7451 45.683 14.736C48.333 14.746 50.446 16.782 50.446 19.369L50.466 19.791H50.465ZM60.974 17.482C61.084 15.707 62.495 13.955 65.056 13.955C67.876 13.955 69.064 15.707 69.138 17.482H60.974Z"/>

	<path viewBox="0 0 174 32" id="logo-hotelchamp" class="clients-logo" d="M17.374 10.913C13.569 10.913 10.269 12.278 8.352 14.56V-3.21865e-09H0V31.909H8.352V26.756C8.352 21.566 10.632 18.591 14.604 18.591C17.327 18.591 18.891 19.623 19.526 21.839C19.939 23.282 20.022 25.144 20.022 27.678V31.908H28.373V25.77C28.373 20.044 27.83 17.33 26.212 15.003C24.207 12.252 21.317 10.913 17.374 10.913ZM27.132 13.27C27.614 13.963 28.007 14.682 28.327 15.475V0.012H19.975V8.926C23.008 9.43 25.37 10.854 27.132 13.27ZM48.84 25.474H45.814V8.304H48.84V15.247H56.505V8.303H59.53V25.473H56.455L56.505 17.949H48.84V25.474ZM67.85 13.176C71.506 13.176 73.85 15.651 73.85 19.514C73.85 23.353 71.532 25.776 67.85 25.776C64.17 25.776 61.85 23.353 61.85 19.514C61.85 15.651 64.195 13.176 67.85 13.176ZM82.448 25.576C81.894 25.702 81.163 25.777 80.306 25.777C79.146 25.777 77.936 25.55 77.28 24.743C76.8 24.163 76.776 23.479 76.776 22.319V15.702H74.206V13.454H76.776V9.264L79.65 8.631V13.454H82.448V15.702H79.65V21.838C79.65 22.52 79.75 22.848 79.978 23.076C80.204 23.327 80.684 23.404 81.188 23.404C81.693 23.404 82.146 23.354 82.448 23.304V25.576ZM94.955 22.748C94.425 23.581 92.811 25.776 89.306 25.776C85.752 25.776 83.331 23.252 83.331 19.364C83.331 15.653 85.878 13.177 89.231 13.177C93.064 13.177 94.904 15.827 94.904 19.515C94.904 19.717 94.879 20.045 94.879 20.247H86.129C86.332 21.889 87.34 23.302 89.458 23.302C91.626 23.302 92.584 21.838 92.961 21.232L94.955 22.748ZM97.124 25.475H99.998V8.302H97.124V25.474V25.475ZM110.914 17.823C110.486 16.536 109.578 15.652 108.116 15.652C106.199 15.652 104.988 17.066 104.988 19.465C104.988 21.864 106.225 23.277 108.116 23.277C109.754 23.277 110.561 22.319 110.99 21.232L113.309 22.47C112.755 23.757 111.116 25.777 108.039 25.777C104.56 25.777 102.139 23.555 102.139 19.515C102.139 15.475 104.737 13.177 108.039 13.177C110.839 13.177 112.577 14.666 113.309 16.562L110.914 17.823ZM125.664 25.475H122.789V19.39C122.789 18.48 122.764 17.697 122.588 17.093C122.336 16.233 121.705 15.703 120.468 15.703C118.68 15.703 117.823 17.093 117.823 19.035V25.475H114.948V8.304H117.823V14.994C118.377 13.934 119.739 13.15 121.553 13.15C122.916 13.15 124.049 13.555 124.858 14.64C125.412 15.424 125.663 16.333 125.663 18.656V25.474L125.664 25.475ZM137.967 22.723C137.967 23.481 138.069 23.732 138.749 23.732H138.899V25.627C138.749 25.65 138.369 25.753 137.539 25.753C136.429 25.753 135.649 25.448 135.42 24.515H135.396C134.916 25.07 133.959 25.803 131.816 25.803C129.496 25.803 127.581 24.641 127.581 22.015C127.581 21.105 127.833 20.425 128.261 19.895C128.991 19.01 130.253 18.531 131.817 18.253L134.464 17.799C135.094 17.672 135.22 17.62 135.22 17.167V16.965C135.22 15.955 134.564 15.451 133.076 15.451C131.463 15.451 130.631 16.131 130.655 17.545L127.957 17.369C127.909 14.414 130.329 13.229 133.203 13.229C135.953 13.229 137.967 14.111 137.967 16.762V22.722V22.723ZM151.003 15.02C151.733 14.138 152.944 13.152 155.113 13.152C156.651 13.152 157.659 13.607 158.289 14.314C159.045 15.171 159.346 16.004 159.346 18.657V25.475H156.474V19.386C156.474 17.216 156.322 15.701 154.154 15.701C152.364 15.701 151.557 17.091 151.557 19.034V25.473H148.684V19.386C148.684 17.216 148.533 15.701 146.364 15.701C144.599 15.701 143.768 17.091 143.768 19.034V25.473H140.893V13.453H143.768V14.992C144.348 13.984 145.633 13.15 147.524 13.15C148.759 13.15 149.792 13.528 150.499 14.312C150.699 14.538 150.852 14.766 151.003 15.018V15.02ZM165.047 24.212V30.272H162.173V13.454H165.047V14.767C165.702 13.907 167.014 13.151 168.577 13.151C171.829 13.151 173.897 15.778 173.897 19.514C173.897 23.125 171.779 25.776 168.577 25.776C166.964 25.776 165.804 25.146 165.047 24.211V24.212ZM67.85 23.303C69.691 23.303 71.002 21.837 71.002 19.465C71.002 17.041 69.742 15.626 67.85 15.626C65.96 15.626 64.699 17.066 64.699 19.465C64.699 21.864 66.009 23.303 67.85 23.303ZM86.206 18.101H92.054C91.979 16.536 90.844 15.474 89.23 15.474C87.591 15.474 86.282 16.663 86.206 18.101ZM135.22 21.206V19.743C134.79 19.895 134.438 19.996 133.58 20.171L132.473 20.399C131.11 20.677 130.505 21.03 130.505 21.989C130.505 22.974 131.159 23.633 132.573 23.633C134.134 23.633 135.22 22.848 135.22 21.206ZM167.97 23.277C169.812 23.277 171.02 21.837 171.02 19.465C171.02 17.041 169.812 15.626 167.97 15.626C166.155 15.626 164.92 17.141 164.92 19.465C164.92 21.788 166.155 23.277 167.97 23.277Z"/>

	<path viewBox="0 0 177 39" id="logo-flitsmeister" class="clients-logo" d="M54.266 27.796V12.066H64.364V14.86H57.83V19.018H63V21.702H57.83V27.796H54.266ZM66.542 27.796V11.076H69.71V27.796H66.542ZM72.702 27.796V16.29H75.87V27.796H72.702ZM74.264 14.728C73.751 14.728 73.322 14.563 72.977 14.233C72.632 13.903 72.46 13.489 72.46 12.99C72.46 12.492 72.632 12.077 72.977 11.747C73.322 11.417 73.751 11.252 74.264 11.252C74.777 11.252 75.21 11.417 75.562 11.747C75.914 12.077 76.09 12.492 76.09 12.99C76.09 13.489 75.914 13.903 75.562 14.233C75.21 14.563 74.777 14.728 74.264 14.728ZM82.998 28.016C81.781 28.016 80.857 27.708 80.226 27.092C79.596 26.476 79.28 25.574 79.28 24.386V18.556H77.806V16.29H79.28V13.804H82.448V16.29H84.868V18.556H82.448V24.1C82.448 25.01 82.873 25.464 83.724 25.464C84.179 25.464 84.582 25.391 84.934 25.244V27.708C84.3107 27.9193 83.6561 28.0234 82.998 28.016ZM91.511 28.038C89.956 28.038 88.746 27.708 87.881 27.048C87.015 26.388 86.553 25.435 86.495 24.188H89.465C89.538 24.731 89.729 25.138 90.037 25.409C90.345 25.681 90.829 25.816 91.489 25.816C92.691 25.816 93.293 25.398 93.293 24.562C93.293 24.181 93.117 23.888 92.765 23.682C92.413 23.477 91.811 23.316 90.961 23.198C89.406 22.964 88.31 22.582 87.671 22.054C87.034 21.526 86.715 20.712 86.715 19.612C86.715 18.468 87.158 17.585 88.045 16.962C88.933 16.338 90.007 16.026 91.269 16.026C94.173 16.026 95.757 17.214 96.021 19.59H93.095C92.919 18.666 92.317 18.204 91.291 18.204C90.777 18.204 90.378 18.314 90.091 18.534C89.806 18.754 89.663 19.04 89.663 19.392C89.663 19.759 89.82 20.03 90.136 20.206C90.451 20.382 91.034 20.529 91.885 20.646C93.439 20.866 94.572 21.233 95.284 21.746C95.994 22.26 96.351 23.096 96.351 24.254C96.351 25.486 95.929 26.425 95.086 27.07C94.242 27.716 93.051 28.038 91.511 28.038ZM98.375 27.796V16.29H101.565V18.05C101.873 17.464 102.335 16.98 102.951 16.598C103.567 16.217 104.278 16.026 105.085 16.026C106.683 16.026 107.754 16.694 108.297 18.028C109.191 16.694 110.482 16.026 112.169 16.026C113.298 16.026 114.211 16.393 114.908 17.126C115.604 17.86 115.953 18.96 115.953 20.426V27.796H112.785V20.778C112.785 19.356 112.183 18.644 110.981 18.644C110.335 18.644 109.804 18.85 109.386 19.26C108.968 19.671 108.759 20.25 108.759 20.998V27.796H105.591V20.778C105.591 19.356 104.989 18.644 103.787 18.644C103.141 18.644 102.61 18.85 102.192 19.26C101.774 19.671 101.565 20.25 101.565 20.998V27.796H98.375ZM123.983 28.038C122.208 28.038 120.763 27.514 119.649 26.465C118.534 25.417 117.977 23.99 117.977 22.186V22.01C117.977 20.221 118.537 18.776 119.66 17.676C120.782 16.576 122.193 16.026 123.895 16.026C125.508 16.026 126.846 16.518 127.91 17.5C128.973 18.483 129.505 19.942 129.505 21.878V22.758H121.211C121.255 23.712 121.526 24.452 122.025 24.98C122.523 25.508 123.205 25.772 124.071 25.772C125.449 25.772 126.249 25.237 126.469 24.166H129.483C129.292 25.413 128.72 26.37 127.767 27.037C126.813 27.705 125.552 28.038 123.983 28.038ZM121.255 20.8H126.403C126.3 19.084 125.463 18.226 123.895 18.226C123.175 18.226 122.585 18.45 122.124 18.897C121.662 19.345 121.372 19.979 121.254 20.8H121.255ZM131.683 27.796V16.29H134.851V27.796H131.683ZM133.245 14.728C132.731 14.728 132.302 14.563 131.958 14.233C131.613 13.903 131.441 13.489 131.441 12.99C131.441 12.492 131.613 12.077 131.958 11.747C132.302 11.417 132.731 11.252 133.245 11.252C133.758 11.252 134.191 11.417 134.543 11.747C134.895 12.077 135.071 12.492 135.071 12.99C135.071 13.489 134.895 13.903 134.543 14.233C134.191 14.563 133.758 14.728 133.245 14.728ZM141.957 28.038C140.402 28.038 139.192 27.708 138.327 27.048C137.461 26.388 136.999 25.435 136.941 24.188H139.911C139.984 24.731 140.175 25.138 140.483 25.409C140.791 25.681 141.275 25.816 141.935 25.816C143.137 25.816 143.739 25.398 143.739 24.562C143.739 24.181 143.563 23.888 143.211 23.682C142.859 23.477 142.257 23.316 141.407 23.198C139.852 22.964 138.756 22.582 138.117 22.054C137.48 21.526 137.161 20.712 137.161 19.612C137.161 18.468 137.604 17.585 138.491 16.962C139.379 16.338 140.453 16.026 141.715 16.026C144.619 16.026 146.203 17.214 146.467 19.59H143.541C143.365 18.666 142.763 18.204 141.737 18.204C141.223 18.204 140.824 18.314 140.537 18.534C140.252 18.754 140.109 19.04 140.109 19.392C140.109 19.759 140.266 20.03 140.582 20.206C140.897 20.382 141.48 20.529 142.331 20.646C143.885 20.866 145.018 21.233 145.73 21.746C146.44 22.26 146.797 23.096 146.797 24.254C146.797 25.486 146.375 26.425 145.532 27.07C144.688 27.716 143.497 28.038 141.957 28.038ZM153.023 28.016C151.805 28.016 150.881 27.708 150.251 27.092C149.62 26.476 149.305 25.574 149.305 24.386V18.556H147.831V16.29H149.305V13.804H152.473V16.29H154.893V18.556H152.473V24.1C152.473 25.01 152.898 25.464 153.749 25.464C154.163 25.4717 154.574 25.3969 154.959 25.244V27.708C154.336 27.9193 153.681 28.0234 153.023 28.016ZM162.417 28.038C160.642 28.038 159.197 27.514 158.083 26.465C156.968 25.417 156.411 23.99 156.411 22.186V22.01C156.411 20.221 156.971 18.776 158.094 17.676C159.216 16.576 160.627 16.026 162.329 16.026C163.942 16.026 165.28 16.518 166.344 17.5C167.407 18.483 167.939 19.942 167.939 21.878V22.758H159.645C159.689 23.712 159.96 24.452 160.459 24.98C160.957 25.508 161.639 25.772 162.505 25.772C163.883 25.772 164.683 25.237 164.903 24.166H167.917C167.726 25.413 167.154 26.37 166.201 27.037C165.247 27.705 163.986 28.038 162.417 28.038ZM159.689 20.8H164.837C164.734 19.084 163.897 18.226 162.329 18.226C161.609 18.226 161.019 18.45 160.558 18.897C160.096 19.345 159.806 19.979 159.688 20.8H159.689ZM170.029 27.796V16.29H173.219V18.49C173.952 16.921 175.191 16.129 176.937 16.114V19.084C175.705 19.07 174.777 19.294 174.154 19.755C173.53 20.217 173.219 20.976 173.219 22.032V27.796H170.029ZM27.064 0H11.599C7.41 0 5.13 0 2.578 2.6C0.0250001 5.2 0 7.475 0 11.7V27.3C0 31.525 0.0250001 33.8 2.578 36.4C5.13 39 7.41 39 11.598 39H27.064C31.252 39 33.828 39 36.085 36.4C38.343 33.8 38.663 31.525 38.663 27.3V11.7C38.663 7.475 38.643 5.2 36.085 2.6C33.527 0 31.262 0 27.064 0ZM13.854 19.3H10.407V16.91H15.176C15.8728 15.8001 16.639 14.7353 17.47 13.722H7.162V25.278H10.407V22.488H12.651C12.9653 21.3948 13.368 20.329 13.855 19.301L13.854 19.3ZM26.131 13.722L24.038 19.889L22 13.722H18.723C16.96 16.584 16.492 21.573 16.492 25.278H19.737V17.585L22.462 25.278H25.612L28.275 17.585V25.278H31.5V13.722H26.13H26.131Z"/>

	<path viewBox="0 0 85 43" id="logo-sap" class="clients-logo"  d="M30.987 16.43L28.333 24.985C29.143 25.302 30.043 25.483 30.987 25.483C31.931 25.483 32.831 25.303 33.595 25.031L30.987 16.431V16.43ZM7.15256e-09 0V43H42.77L84.595 0H7.15256e-09ZM51.585 26.479H48.886V34.672H36.563L35.349 30.734C34.045 31.186 32.561 31.413 30.987 31.413C29.367 31.413 27.883 31.141 26.534 30.688L25.275 34.626H17.719L18.529 32.363C18.439 32.453 18.349 32.544 18.214 32.635C16.325 34.219 13.942 35.034 11.064 35.125H10.614C7.241 35.125 3.958 34.174 1.169 32.545L3.733 27.294C6.521 28.968 8.275 29.376 10.613 29.331C11.828 29.285 12.727 29.059 13.313 28.471C13.672 28.108 13.852 27.656 13.852 27.158C13.897 25.8 12.008 25.166 9.669 24.397C7.78 23.808 5.667 22.994 4.003 21.727C2.023 20.233 1.079 18.377 1.124 15.752C1.169 13.851 1.844 12.131 3.104 10.772C4.946 8.827 7.87 7.65 11.423 7.65C14.48 7.65 18.168 8.556 20.867 9.959L17.943 15.164C15.02 13.716 13.536 13.58 11.872 13.489C9.353 13.354 8.094 14.259 8.094 15.255C8.094 16.432 10.433 17.563 12.681 18.287C16.099 19.374 20.417 20.867 21.047 25.167L27.253 8.148H34.449L41.734 28.472V8.057H50.054C58.014 8.057 61.748 10.954 61.748 17.336C61.928 23.039 58.06 26.479 51.584 26.479H51.585ZM50.73 13.669H48.886V20.549H50.73C53.159 20.549 55.137 19.735 55.137 17.064C55.137 14.529 53.159 13.669 50.73 13.669Z"/>

	<path viewBox="0 0 145 40" id="logo-redkix" class="clients-logo"  d="M133.545 13.242C133.404 13.123 133.254 13.038 133.115 13.032C132.295 13.0026 131.473 12.9942 130.652 13.007C129.817 13.015 128.959 13.032 128.066 13.032C128.122 13.119 128.173 13.202 128.221 13.279C128.451 13.646 128.613 13.915 128.793 14.171C130.224 16.213 131.626 18.277 133.116 20.276C133.533 20.836 133.58 21.252 133.334 21.732C133.262 21.8694 133.178 22.0005 133.084 22.124C132.642 22.716 132.209 23.314 131.78 23.914C130.944 25.086 130.125 26.269 129.295 27.444C128.872 28.042 128.455 28.644 127.892 29.449C128.702 29.449 129.432 29.433 130.122 29.429C130.694 29.4231 131.266 29.4361 131.836 29.468C132.239 29.493 132.562 29.438 132.835 29.298C133.152 29.138 133.402 28.861 133.631 28.461C133.893 28.005 134.166 27.557 134.45 27.106C135.004 26.224 135.596 25.336 136.208 24.374C137.248 25.936 138.13 27.291 139.047 28.624C139.258 28.93 139.572 29.377 139.857 29.39C140.683 29.4241 141.51 29.4395 142.336 29.436C143.183 29.436 144.062 29.426 145 29.426C143.13 26.766 141.446 24.334 139.713 21.936C139.484 21.62 139.371 21.358 139.39 21.087C139.405 20.87 139.504 20.647 139.696 20.386C140.572 19.188 141.435 17.9806 142.285 16.764L143.073 15.639L144.159 14.089C144.273 13.927 144.381 13.76 144.501 13.571C144.602 13.411 144.713 13.234 144.845 13.029C143.299 13.029 141.991 13.074 140.688 13.011C140.395 12.997 140.162 13.038 139.964 13.131C139.686 13.262 139.479 13.498 139.282 13.831C138.918 14.4433 138.544 15.05 138.161 15.651C137.698 16.381 137.21 17.137 136.688 17.962C136.511 17.692 136.34 17.425 136.173 17.162C135.54 16.168 134.967 15.23 134.372 14.326C134.236 14.1194 134.099 13.9141 133.959 13.71C133.842 13.5369 133.703 13.3796 133.545 13.242ZM75.3833 24.628C74.9963 24.729 74.6553 24.946 74.3263 25.363L74.2803 25.42C73.3623 26.501 71.2103 26.732 69.8103 26.062C69.4732 25.8995 69.166 25.6815 68.9013 25.417C68.4849 24.9963 68.1731 24.4836 67.9911 23.9203C67.809 23.357 67.7618 22.7589 67.8533 22.174H79.8473C80.0463 18.911 79.5313 16.031 76.7313 14.094C71.0993 10.197 63.3363 13.63 62.6343 20.387C62.4143 22.502 62.7123 24.471 63.6003 26.058C64.5063 27.678 66.0263 28.898 68.2383 29.472C70.3063 30.009 72.3983 30.046 74.4583 29.47C75.5163 29.174 76.4683 28.756 77.2783 28.155C78.3723 27.342 79.2033 26.195 79.6763 24.562C78.8223 24.562 78.0683 24.574 77.3473 24.572C76.9773 24.571 76.6173 24.565 76.2553 24.553C75.9625 24.5354 75.6688 24.5607 75.3833 24.628ZM34.6323 6.43402C38.0223 10.058 40.1133 14.924 40.0643 20.26C39.9633 31.18 31.1053 40.013 20.1063 39.999C9.11329 40.122 -0.0597073 30.869 0.000292684 19.832C0.0382927 12.962 3.57029 6.98702 8.81529 3.43802C12.1203 1.19287 16.0248 -0.00512712 20.0203 1.64938e-05C25.7083 0.0130165 30.9413 2.48802 34.6333 6.43402H34.6323ZM50.9493 13.086V29.344H55.7273C55.7273 28.77 55.7233 28.302 55.7273 27.834C55.7473 25.538 55.6803 23.238 55.8093 20.949C55.9853 17.822 58.0173 16.457 61.0123 17.313C61.1203 17.343 61.2353 17.35 61.4223 17.38C61.6183 16.44 61.8193 15.52 62.0013 14.597C62.2943 13.101 62.1713 12.924 60.6603 12.711C60.3076 12.6688 59.9518 12.659 59.5973 12.682C57.8193 12.764 56.6453 13.802 55.6043 15.489L55.4693 13.086H50.9493ZM121.092 29.334H125.86V13.086H121.092V29.334ZM112.916 28.65C113.142 28.974 113.53 29.388 113.86 29.404C115.505 29.481 117.156 29.439 119.073 29.439L112.361 19.593L118.504 13.029C117.388 13.029 116.59 13.129 115.825 13.009C113.734 12.683 112.242 13.423 111 15.135C109.954 16.577 108.633 17.818 107.433 19.149L107.162 19.025V4.84902H102.312V29.369H107.132C107.382 27.155 106.405 24.58 109.248 23.237C110.442 25.008 111.658 26.844 112.916 28.65ZM95.1183 29.349V27.344C94.2883 28.006 93.6183 28.742 92.7883 29.171C89.2583 30.998 84.6253 29.401 83.0193 25.775C81.7053 22.806 81.7353 19.753 83.1053 16.806C84.5993 13.591 88.2493 11.881 91.6533 12.896C92.8703 13.259 93.9173 14.188 94.9733 14.818V4.85002L99.2083 4.82802V29.328L95.1183 29.348V29.349ZM120.899 9.05002H125.945V4.84602H120.899V9.05102V9.05002ZM31.2123 26.79C32.1033 27.026 33.0593 27.022 34.1663 27.142C33.9073 27.643 33.7343 28.066 33.4883 28.444C29.8383 34.05 23.7483 36.524 18.0353 35.772C10.9433 34.839 5.86829 29.732 4.45329 23.27C2.53329 14.502 8.55229 5.89302 17.6803 4.32002C27.0093 2.71202 35.9933 10.252 35.9513 19.654C35.9433 21.606 34.8323 22.853 33.0833 22.874C31.3563 22.894 30.1863 21.671 30.0803 19.734C29.8073 14.734 26.6323 11.091 21.6703 10.08C16.0233 8.93002 10.2003 13.639 9.97029 19.387C9.78029 24.135 12.6933 28.037 16.6043 29.48C20.7343 31.003 25.1013 29.706 28.0773 26.07C28.2023 25.918 28.3113 25.753 28.4073 25.62C29.4673 26.075 30.3083 26.551 31.2123 26.79ZM19.9523 25.88C16.7583 25.852 14.1053 23.117 14.1573 19.905C14.2083 16.714 16.9383 14.073 20.1503 14.108C23.3403 14.143 25.9823 16.87 25.9433 20.091C25.9043 23.279 23.1853 25.907 19.9533 25.879L19.9523 25.88ZM86.8193 24.232C87.3463 25.508 88.4233 26.184 89.7993 26.254C91.1673 26.323 92.2543 25.749 93.0063 24.583C94.1863 22.753 94.1533 19.58 92.9303 17.806C91.4823 15.704 88.4573 15.682 87.1703 17.878C86.5733 18.896 86.3653 20.143 86.0053 21.217C86.3003 22.348 86.4493 23.336 86.8193 24.232ZM67.9483 19.3C67.9913 17.267 69.4743 15.949 71.5933 16.004C73.5373 16.054 74.6943 17.28 74.6333 19.3H67.9483Z"/>

	<g id="logo-nos" class="clients-logo">
		<path viewBox="0 0 93 53"   d="M7.727 20.7729H0V52.1469H8.362C8.362 52.1469 8.362 35.7689 8.15 34.5989C8.15 34.5989 12.655 41.601 20.377 52.1399H27.429V20.7919H19.127C19.127 20.7919 19.261 35.8159 19.35 37.2959C19.35 37.2959 17.118 33.0799 7.727 20.7729Z"/>

		<path opacity="0.6"   d="M48.168 8.312C43.715 8.312 40.105 11.939 40.105 16.414C40.105 20.889 43.715 24.516 48.168 24.516C52.622 24.516 56.232 20.889 56.232 16.414C56.232 11.939 52.622 8.312 48.168 8.312ZM64.623 16.444C64.623 25.526 57.296 32.888 48.258 32.888C39.219 32.888 31.892 25.526 31.892 16.444C31.892 7.362 39.219 2.50339e-09 48.258 2.50339e-09C57.296 2.50339e-09 64.623 7.362 64.623 16.444Z"/>

		<path  d="M92.534 3.94695L88.309 10.823C88.309 10.823 84.739 7.83295 79.679 7.83295C76.109 7.83295 76.436 9.47795 76.436 9.71695C76.436 9.95695 76.124 11.287 82.298 12.617C88.44 13.94 92.951 16.175 92.891 22.782C92.833 29.24 87.951 32.709 79.918 32.709C71.884 32.709 66.944 28.822 66.944 28.822L71.051 22.065C71.051 22.065 75.217 25.098 80.453 25.175C84.56 25.235 84.321 23.38 84.321 23.38C84.321 21.826 82.417 20.928 76.764 19.733C71.11 18.537 67.718 15.607 67.718 10.763C67.718 5.59095 70.828 0.270952 80.052 0.253952C88.026 0.238952 92.534 3.94695 92.534 3.94695Z"/>
	</g>

	<g viewBox="0 0 202 42" id="main-logo" class="logo" >
		<path d="M19.1922 40.5841H10.8635L0 10.5084H8.87184L15.1183 32.6122H15.2089L21.6364 10.5084H30.0556L19.1922 40.5841Z" fill="black"/>
		<path d="M56.3996 34.6957C56.3996 38.2287 57.2143 39.044 58.1196 39.4063V40.584H49.5194C49.0667 39.1346 48.9762 38.6816 48.7952 37.051C46.9846 38.9534 44.4498 41.3993 39.018 41.3993C34.4916 41.3993 29.8746 38.8628 29.8746 32.6121C29.8746 26.7238 33.5863 23.7343 38.6559 23.0096L45.8077 21.9225C47.0751 21.7414 48.6141 21.1978 48.6141 19.5672C48.6141 16.2154 45.4456 16.0342 43.3634 16.0342C39.3801 16.0342 38.7464 18.4801 38.4748 20.2013H30.7799C31.6852 10.9612 38.1127 9.69299 44.2687 9.69299C48.5236 9.69299 56.3091 10.9612 56.3091 18.3896V34.6957H56.3996ZM48.6141 25.9085C47.7993 26.5426 46.5319 26.9956 43.2729 27.5391C40.2854 28.0826 37.8411 28.8073 37.8411 32.0686C37.8411 34.8769 40.0138 35.6922 41.5528 35.6922C45.0835 35.6922 48.6141 33.4274 48.6141 29.8038V25.9085Z" fill="black"/>
		<path d="M69.0737 40.5841H61.1071V0H69.0737V40.5841Z" fill="black"/>
		<path d="M84.192 10.5084H89.0806V16.1249H84.192V32.4311C84.192 34.1523 84.2825 34.877 87.451 34.877C87.9942 34.877 88.5374 34.7864 89.0806 34.7864V40.7653C87.8132 40.8559 86.5458 40.8559 85.3689 40.8559H84.3731C77.4929 40.8559 76.2254 38.2288 76.2254 34.3335V16.1249H72.1516V10.5084H76.2254V2.35535H84.192V10.5084Z" fill="black"/>
		<path d="M120.041 31.7062C117.959 38.9534 111.894 41.3087 106.734 41.3087C98.224 41.3087 91.7059 37.2322 91.7059 24.912C91.7059 21.2884 92.9733 9.69299 106.191 9.69299C112.165 9.69299 120.404 12.5012 120.404 26.2708V27.7203H99.6724C99.8535 29.985 100.397 35.058 106.734 35.058C108.906 35.058 111.17 33.8804 111.803 31.7968H120.041V31.7062ZM112.256 22.5567C111.803 17.6648 108.725 16.2154 106.1 16.2154C102.388 16.2154 100.397 18.5707 99.944 22.5567H112.256Z" fill="black"/>
		<path d="M150.188 29.6228C149.916 32.7028 147.472 41.3994 136.427 41.3994C125.111 41.3994 122.486 32.7934 122.486 26.4521C122.486 16.7591 126.741 9.78369 136.97 9.78369C141.768 9.78369 149.554 11.9578 150.278 21.2885H142.221C141.859 19.3862 140.773 16.3967 137.333 16.3967H136.97C131.991 16.3967 130.633 21.3791 130.633 25.0933C130.633 28.3545 130.724 34.877 136.789 34.877C140.863 34.877 142.221 31.0722 142.221 29.6228H150.188Z" fill="black"/>
		<path d="M181.058 40.5841H173.091V22.285C173.091 20.1109 173.001 16.3967 167.931 16.3967C164.401 16.3967 161.685 18.752 161.685 23.3721V40.5841H153.718V0H161.685V14.4037H161.775C162.771 11.9578 166.211 9.69308 170.466 9.69308C176.351 9.69308 180.968 13.1355 180.968 19.7485V40.5841H181.058Z" fill="black"/>
		<path d="M201.88 34.877H186.037V40.4935H201.88V34.877Z" fill="black"/>
	</g>

</svg>

